G04*
G04 #@! TF.GenerationSoftware,Altium Limited,Altium Designer,20.0.10 (225)*
G04*
G04 Layer_Color=16776960*
%FSLAX44Y44*%
%MOMM*%
G71*
G01*
G75*
%ADD10C,0.2000*%
%ADD43C,0.2540*%
%ADD44C,0.1524*%
D10*
X0Y0D02*
X400000D01*
X0D02*
Y150000D01*
X400000D01*
Y0D02*
Y150000D01*
D43*
Y-142540D02*
Y-3540D01*
X0Y-142540D02*
Y-3540D01*
X200000Y-140000D02*
X400000D01*
X0D02*
X200000D01*
X384760Y-134920D02*
X400000Y-140000D01*
X384760Y-145080D02*
X400000Y-140000D01*
X0D02*
X15240Y-145080D01*
X0Y-140000D02*
X15240Y-134920D01*
X-231540Y150000D02*
X-3540D01*
X-231540Y0D02*
X-3540D01*
X-229000Y75000D02*
Y150000D01*
Y0D02*
Y75000D01*
X-234080Y134760D02*
X-229000Y150000D01*
X-223920Y134760D01*
X-229000Y0D02*
X-223920Y15240D01*
X-234080D02*
X-229000Y0D01*
D44*
X141344Y-186723D02*
Y-171488D01*
X133726Y-179105D01*
X143883D01*
X148961Y-174027D02*
X151500Y-171488D01*
X156579D01*
X159118Y-174027D01*
Y-184184D01*
X156579Y-186723D01*
X151500D01*
X148961Y-184184D01*
Y-174027D01*
X166735Y-189262D02*
X169275Y-186723D01*
Y-184184D01*
X166735D01*
Y-186723D01*
X169275D01*
X166735Y-189262D01*
X164196Y-191801D01*
X179431Y-174027D02*
X181971Y-171488D01*
X187049D01*
X189588Y-174027D01*
Y-184184D01*
X187049Y-186723D01*
X181971D01*
X179431Y-184184D01*
Y-174027D01*
X214980Y-186723D02*
X209902Y-181644D01*
Y-176566D01*
X214980Y-171488D01*
X222597Y-186723D02*
Y-176566D01*
X225137D01*
X227676Y-179105D01*
Y-186723D01*
Y-179105D01*
X230215Y-176566D01*
X232754Y-179105D01*
Y-186723D01*
X237832D02*
Y-176566D01*
X240372D01*
X242911Y-179105D01*
Y-186723D01*
Y-179105D01*
X245450Y-176566D01*
X247989Y-179105D01*
Y-186723D01*
X253067D02*
X258146Y-181644D01*
Y-176566D01*
X253067Y-171488D01*
X-252361Y9996D02*
Y15074D01*
Y12535D01*
X-267596D01*
X-265057Y9996D01*
X-267596Y32848D02*
Y22692D01*
X-259979D01*
X-262518Y27770D01*
Y30309D01*
X-259979Y32848D01*
X-254901D01*
X-252361Y30309D01*
Y25231D01*
X-254901Y22692D01*
X-249822Y40466D02*
X-252361Y43005D01*
X-254901D01*
Y40466D01*
X-252361D01*
Y43005D01*
X-249822Y40466D01*
X-247283Y37927D01*
X-265057Y53162D02*
X-267596Y55701D01*
Y60779D01*
X-265057Y63319D01*
X-254901D01*
X-252361Y60779D01*
Y55701D01*
X-254901Y53162D01*
X-265057D01*
X-252361Y88710D02*
X-257440Y83632D01*
X-262518D01*
X-267596Y88710D01*
X-252361Y96328D02*
X-262518D01*
Y98867D01*
X-259979Y101406D01*
X-252361D01*
X-259979D01*
X-262518Y103945D01*
X-259979Y106484D01*
X-252361D01*
Y111563D02*
X-262518D01*
Y114102D01*
X-259979Y116641D01*
X-252361D01*
X-259979D01*
X-262518Y119180D01*
X-259979Y121720D01*
X-252361D01*
Y126798D02*
X-257440Y131876D01*
X-262518D01*
X-267596Y126798D01*
M02*
