G04*
G04 #@! TF.GenerationSoftware,Altium Limited,Altium Designer,20.0.10 (225)*
G04*
G04 Layer_Physical_Order=1*
G04 Layer_Color=255*
%FSLAX44Y44*%
%MOMM*%
G71*
G01*
G75*
%ADD13R,2.0000X1.2000*%
%ADD14R,1.3000X0.7000*%
%ADD15R,0.7000X1.3000*%
%ADD16R,1.3000X0.9000*%
%ADD17R,1.3500X0.7500*%
%ADD18R,0.7500X1.3500*%
%ADD19R,0.9500X0.3000*%
%ADD20R,0.3000X0.9500*%
%ADD21R,1.0500X0.4500*%
%ADD36C,0.5000*%
%ADD37C,0.3000*%
%ADD38O,3.2500X1.6250*%
%ADD39C,1.2500*%
%ADD40O,2.0000X1.6000*%
%ADD41R,2.0000X1.6000*%
%ADD42C,0.6000*%
G36*
X258000Y125000D02*
X250000D01*
X238098Y113098D01*
X238000Y113118D01*
X235659Y112652D01*
X233674Y111326D01*
X232348Y109341D01*
X231882Y107000D01*
X231902Y106902D01*
X229000Y104000D01*
X235500Y97500D01*
X221000Y83000D01*
Y82250D01*
X205000D01*
Y97000D01*
X216000D01*
X245000Y126000D01*
Y144000D01*
X258000D01*
Y125000D01*
D02*
G37*
G36*
X75000Y115000D02*
X66000D01*
X61000Y110000D01*
Y97000D01*
X34000D01*
X33000Y98000D01*
Y117000D01*
X48000D01*
X55000Y124000D01*
X75000D01*
Y115000D01*
D02*
G37*
G36*
X172667Y25000D02*
X183377D01*
X184227Y23730D01*
X183883Y22000D01*
X184348Y19659D01*
X185674Y17674D01*
X187659Y16348D01*
X190000Y15883D01*
X192341Y16348D01*
X194326Y17674D01*
X195652Y19659D01*
X196117Y22000D01*
X195773Y23730D01*
X196623Y25000D01*
X319500D01*
Y23000D01*
X338500D01*
Y23000D01*
X338904Y23167D01*
X339998Y22420D01*
X340348Y20659D01*
X341674Y18674D01*
X343659Y17348D01*
X346000Y16882D01*
X348341Y17348D01*
X350326Y18674D01*
X351652Y20659D01*
X352118Y23000D01*
X351915Y24018D01*
X352721Y25000D01*
X365000D01*
X365000Y28000D01*
X371000Y34000D01*
X393000Y34000D01*
Y2000D01*
X143000D01*
X129000Y16000D01*
X39083D01*
X38964Y16904D01*
X37843Y19611D01*
X36059Y21934D01*
X34000Y23515D01*
Y46000D01*
X148555D01*
X172667Y25000D01*
D02*
G37*
D13*
X46000Y82500D02*
D03*
Y37500D02*
D03*
Y62500D02*
D03*
Y107500D02*
D03*
D14*
X319000Y77500D02*
D03*
Y58500D02*
D03*
X292000Y56500D02*
D03*
Y75500D02*
D03*
D15*
X271000Y107000D02*
D03*
X252000D02*
D03*
X203500Y137000D02*
D03*
X184500D02*
D03*
D16*
X350000Y115500D02*
D03*
Y134500D02*
D03*
X329000Y30500D02*
D03*
Y11500D02*
D03*
D17*
X321000Y134250D02*
D03*
Y119750D02*
D03*
D18*
X267250Y135000D02*
D03*
X252750D02*
D03*
D19*
X213750Y52250D02*
D03*
Y57250D02*
D03*
Y62250D02*
D03*
Y67250D02*
D03*
Y72250D02*
D03*
Y77250D02*
D03*
Y82250D02*
D03*
X166250D02*
D03*
Y77250D02*
D03*
Y72250D02*
D03*
Y67250D02*
D03*
Y62250D02*
D03*
Y57250D02*
D03*
Y52250D02*
D03*
D20*
X205000Y91000D02*
D03*
X200000D02*
D03*
X195000D02*
D03*
X190000D02*
D03*
X185000D02*
D03*
X180000D02*
D03*
X175000D02*
D03*
Y43500D02*
D03*
X180000D02*
D03*
X185000D02*
D03*
X190000D02*
D03*
X195000D02*
D03*
X200000D02*
D03*
X205000D02*
D03*
D21*
X351000Y94750D02*
D03*
Y79250D02*
D03*
Y60750D02*
D03*
Y45250D02*
D03*
D36*
X244250Y77250D02*
X271000Y104000D01*
Y107000D01*
X350000Y115500D02*
X367700D01*
X378000Y125800D02*
X380000D01*
X367700Y115500D02*
X378000Y125800D01*
X322000Y120750D02*
X342750D01*
X321000Y119750D02*
X322000Y120750D01*
X342750D02*
X345000Y118500D01*
X347000D01*
X350000Y115500D01*
X271000Y107000D02*
X305250D01*
X318000Y119750D01*
X321000D01*
X203500Y121500D02*
Y137000D01*
D37*
X213750Y77250D02*
X244250D01*
X219950Y62250D02*
X232000Y50200D01*
Y50000D02*
Y50200D01*
X213750Y72250D02*
X240750D01*
X246000Y67000D01*
X248000D01*
X232750Y67250D02*
X240000Y60000D01*
X213750Y67250D02*
X232750D01*
X227442Y35250D02*
X286942Y94750D01*
X197050Y35250D02*
X227442D01*
X286942Y94750D02*
X354000D01*
X318000Y134250D02*
X321000D01*
X267250Y132000D02*
Y135000D01*
X315750Y132000D02*
X318000Y134250D01*
X267250Y132000D02*
X269500Y129750D01*
X273676Y128574D02*
X313993D01*
X315750Y130331D02*
Y132000D01*
X269500Y129750D02*
X272500D01*
X313993Y128574D02*
X315750Y130331D01*
X272500Y129750D02*
X273676Y128574D01*
X46000Y107500D02*
X46500Y107000D01*
X59500Y120000D02*
X70000D01*
X46500Y107000D02*
X59500Y120000D01*
X190000Y91000D02*
Y108750D01*
X184500Y114250D02*
X190000Y108750D01*
X184500Y114250D02*
Y137000D01*
X195000Y43500D02*
X195000D01*
Y37300D02*
X197050Y35250D01*
X195000Y37300D02*
Y43500D01*
X333000Y69000D02*
X342750D01*
X351000Y60750D01*
X129500Y82500D02*
X139000Y73000D01*
X46000Y82500D02*
X129500D01*
X142500Y62500D02*
X153000Y73000D01*
X46000Y62500D02*
X142500D01*
X295000Y56500D02*
X306500Y45000D01*
X350750D02*
X351000Y45250D01*
X306500Y45000D02*
X350750D01*
X292000Y56500D02*
X295000D01*
X319000Y77500D02*
X320750Y79250D01*
X351000D01*
X359650Y100400D02*
X380000D01*
X354000Y94750D02*
X359650Y100400D01*
X190000Y22000D02*
Y43500D01*
X365500Y75000D02*
X380000D01*
X354750Y64250D02*
X365500Y75000D01*
X354750Y61500D02*
Y64250D01*
X354000Y60750D02*
X354750Y61500D01*
X351000Y60750D02*
X354000D01*
X200000Y91000D02*
Y107000D01*
X200000Y107000D01*
X238000D02*
X252000D01*
X218542Y62250D02*
X219950D01*
X321000Y134250D02*
X349750D01*
X350000Y134500D01*
X329000Y30500D02*
X338500D01*
X305000Y85500D02*
Y87000D01*
X292000Y75500D02*
X295000D01*
X305000Y85500D01*
X331493Y51493D02*
X331500Y51500D01*
X329007Y51493D02*
X331493D01*
X322000Y58500D02*
X329007Y51493D01*
X319000Y58500D02*
X322000D01*
X338500Y30500D02*
X346000Y23000D01*
X203500Y121500D02*
X204000Y121000D01*
X359000Y32000D02*
X376600Y49600D01*
X380000D01*
D38*
X20000Y14000D02*
D03*
Y131000D02*
D03*
D39*
Y50000D02*
D03*
Y95000D02*
D03*
D40*
X380000Y125800D02*
D03*
Y100400D02*
D03*
Y75000D02*
D03*
Y49600D02*
D03*
D41*
Y24200D02*
D03*
D42*
X232000Y50000D02*
D03*
X248000Y67000D02*
D03*
X240000Y60000D02*
D03*
X289000Y128000D02*
D03*
X70000Y120000D02*
D03*
X333000Y69000D02*
D03*
X139000Y73000D02*
D03*
X153000D02*
D03*
X190000Y22000D02*
D03*
X200000Y107000D02*
D03*
X238000D02*
D03*
X305000Y87000D02*
D03*
X331500Y51500D02*
D03*
X346000Y23000D02*
D03*
X204000Y121000D02*
D03*
X359000Y32000D02*
D03*
X143000Y13000D02*
D03*
X227000Y95000D02*
D03*
M02*
