G04*
G04 #@! TF.GenerationSoftware,Altium Limited,Altium Designer,20.0.10 (225)*
G04*
G04 Layer_Physical_Order=2*
G04 Layer_Color=16711680*
%FSLAX44Y44*%
%MOMM*%
G71*
G01*
G75*
%ADD37C,0.3000*%
%ADD38O,3.2500X1.6250*%
%ADD39C,1.2500*%
%ADD40O,2.0000X1.6000*%
%ADD41R,2.0000X1.6000*%
%ADD42C,0.6000*%
G36*
X131000Y146000D02*
X365000D01*
Y60000D01*
X393000D01*
Y35200D01*
X367000D01*
Y34000D01*
X365000D01*
Y19000D01*
X325000D01*
X324000Y20000D01*
Y62000D01*
X342000D01*
Y78000D01*
X298000D01*
Y133000D01*
X292317D01*
X291341Y133652D01*
X289000Y134117D01*
X286659Y133652D01*
X285683Y133000D01*
X228000D01*
X210000Y115000D01*
X63000Y115000D01*
X63000Y145105D01*
X63898Y146003D01*
X131000Y146000D01*
D02*
G37*
G36*
X338000Y65059D02*
X324000D01*
X323704Y65000D01*
X298000D01*
X297000Y64000D01*
X249000Y14000D01*
X184000D01*
Y28000D01*
X241000D01*
X287000Y74000D01*
X338000D01*
Y65059D01*
D02*
G37*
G36*
X140000Y101000D02*
X199409D01*
X200000Y100883D01*
X200591Y101000D01*
X231000D01*
Y88000D01*
X228000Y85000D01*
X141000D01*
X133000Y77000D01*
Y73591D01*
X132882Y73000D01*
X133000Y72409D01*
Y32000D01*
X152000Y13000D01*
X143000Y4000D01*
X138000D01*
X114000Y28000D01*
X114000Y100102D01*
X114898Y101000D01*
X140000Y101000D01*
D02*
G37*
D37*
X232000Y50000D02*
X246000D01*
X161000Y73000D02*
X167000Y67000D01*
X153000Y73000D02*
X161000D01*
X167000Y67000D02*
X248000D01*
X152000Y60000D02*
X240000D01*
X139000Y73000D02*
X152000Y60000D01*
X246000Y50000D02*
X289000Y93000D01*
Y128000D01*
X200000Y107000D02*
X238000D01*
D38*
X20000Y14000D02*
D03*
Y131000D02*
D03*
D39*
Y50000D02*
D03*
Y95000D02*
D03*
D40*
X380000Y125800D02*
D03*
Y100400D02*
D03*
Y75000D02*
D03*
Y49600D02*
D03*
D41*
Y24200D02*
D03*
D42*
X232000Y50000D02*
D03*
X248000Y67000D02*
D03*
X240000Y60000D02*
D03*
X289000Y128000D02*
D03*
X70000Y120000D02*
D03*
X333000Y69000D02*
D03*
X139000Y73000D02*
D03*
X153000D02*
D03*
X190000Y22000D02*
D03*
X200000Y107000D02*
D03*
X238000D02*
D03*
X305000Y87000D02*
D03*
X331500Y51500D02*
D03*
X346000Y23000D02*
D03*
X204000Y121000D02*
D03*
X359000Y32000D02*
D03*
X143000Y13000D02*
D03*
X227000Y95000D02*
D03*
M02*
