G04*
G04 #@! TF.GenerationSoftware,Altium Limited,Altium Designer,20.0.10 (225)*
G04*
G04 Layer_Color=204*
%FSLAX44Y44*%
%MOMM*%
G71*
G01*
G75*
%ADD22R,2.2000X1.4000*%
%ADD23R,1.5000X0.9000*%
%ADD24R,0.9000X1.5000*%
%ADD25R,1.5000X1.1000*%
%ADD26R,1.5500X0.9500*%
%ADD27R,0.9500X1.5500*%
%ADD28R,1.1500X0.5000*%
%ADD29R,0.5000X1.1500*%
%ADD30R,1.2500X0.6500*%
%ADD31O,3.4500X1.8250*%
%ADD32C,1.4500*%
%ADD33O,2.2000X1.8000*%
%ADD34R,2.2000X1.8000*%
%ADD35C,0.8000*%
D22*
X46000Y82500D02*
D03*
Y37500D02*
D03*
Y62500D02*
D03*
Y107500D02*
D03*
D23*
X319000Y77500D02*
D03*
Y58500D02*
D03*
X292000Y56500D02*
D03*
Y75500D02*
D03*
D24*
X271000Y107000D02*
D03*
X252000D02*
D03*
X203500Y137000D02*
D03*
X184500D02*
D03*
D25*
X350000Y115500D02*
D03*
Y134500D02*
D03*
X329000Y30500D02*
D03*
Y11500D02*
D03*
D26*
X321000Y134250D02*
D03*
Y119750D02*
D03*
D27*
X267250Y135000D02*
D03*
X252750D02*
D03*
D28*
X213750Y52250D02*
D03*
Y57250D02*
D03*
Y62250D02*
D03*
Y67250D02*
D03*
Y72250D02*
D03*
Y77250D02*
D03*
Y82250D02*
D03*
X166250D02*
D03*
Y77250D02*
D03*
Y72250D02*
D03*
Y67250D02*
D03*
Y62250D02*
D03*
Y57250D02*
D03*
Y52250D02*
D03*
D29*
X205000Y91000D02*
D03*
X200000D02*
D03*
X195000D02*
D03*
X190000D02*
D03*
X185000D02*
D03*
X180000D02*
D03*
X175000D02*
D03*
Y43500D02*
D03*
X180000D02*
D03*
X185000D02*
D03*
X190000D02*
D03*
X195000D02*
D03*
X200000D02*
D03*
X205000D02*
D03*
D30*
X351000Y94750D02*
D03*
Y79250D02*
D03*
Y60750D02*
D03*
Y45250D02*
D03*
D31*
X20000Y14000D02*
D03*
Y131000D02*
D03*
D32*
Y50000D02*
D03*
Y95000D02*
D03*
D33*
X380000Y125800D02*
D03*
Y100400D02*
D03*
Y75000D02*
D03*
Y49600D02*
D03*
D34*
Y24200D02*
D03*
D35*
X232000Y50000D02*
D03*
X248000Y67000D02*
D03*
X240000Y60000D02*
D03*
X70000Y120000D02*
D03*
X333000Y69000D02*
D03*
X139000Y73000D02*
D03*
X153000D02*
D03*
X190000Y22000D02*
D03*
X200000Y107000D02*
D03*
X238000D02*
D03*
X305000Y87000D02*
D03*
X331500Y51500D02*
D03*
X346000Y23000D02*
D03*
X204000Y121000D02*
D03*
X359000Y32000D02*
D03*
X143000Y13000D02*
D03*
X227000Y95000D02*
D03*
M02*
